/* XPM */
static char * rxvt_xpm[] = {
"48 48 6 1",
" 	c None",
".	c #B3B3B3",
"+	c #D9D9D9",
"@	c #7F7F7F",
"#	c #000000",
"$	c #FFFFFF",
"                                                ",
"                                                ",
"                                                ",
"                                                ",
"                                                ",
"                                                ",
"                                                ",
"         ...........................            ",
"        .+++++++++++++++++++++++++++.           ",
"       .+++++++++++++++++++++++++++++@@         ",
"       .++#######################++++@@         ",
"       .++########################+++@@@        ",
"       .++##$$#$##$#$$$$##$#######+++@@@        ",
"       .++########################+++@@@@       ",
"       .++##$$$$#$$#$$$###########+++@@@@       ",
"       .++########################+++@@@@@      ",
"       .++##$$$$$$$$$$#$$$$$######+++@@@@@      ",
"       .++########################+++@@@@@      ",
"       .++##$$$#$$$$#$$##$$$######+++@@@@@      ",
"       .++########################+++@@@@@      ",
"       .++##$#####################+++@@@@@      ",
"       .++########################+++@@@@@      ",
"       .++##$$$$#$#$$$#$##########+++@@@@@      ",
"       .++########################+++@@@@@      ",
"       .++##$#$$$$################+++@@@@@      ",
"       .+++######################++++@@@@       ",
"       .+++++++++++++++++++++++++++++@@@        ",
"        .+++++++++++++++++++++++++++@@@         ",
"           @@@@@@@@@@@@@@@@@@@@@@@@@...@@       ",
"            ..........................@@@       ",
"           @@@@@@@@@@@@@@@@@@@@@@@@@@@@@@       ",
"         @+++++++++++++++++++++++++++@@@@.. ..  ",
"         @++++++++++++++++++#######++@@@@  .  . ",
"       @@@@@@@@@@@@@@@@@@@@@@@@@@@+++@@@     .  ",
"      @++++++++++++++++++++++++++@@@@@      .   ",
"     @++++++++++++++++++++++++++@@      @@@@@@  ",
"     @++$$$$$$$$$$$$$$$$$$$+++++@@   @@@@@...@  ",
"    @++++++++++++++++++++++++++@@   @@+++@@..@  ",
"   @++$$$$$$$$$$$$$$$$$$$$++++@@    @+++++..@   ",
"  @++++++++++++++++++++++++++@@     @.....@@    ",
"  @@@@@@@@@@@@@@@@@@@@@@@@@@@@      @@@@@@@     ",
"                                                ",
"                                                ",
"                                                ",
"                                                ",
"                                                ",
"                                                ",
"                                                "};
